<svg xmlns="http://www.w3.org/2000/svg" viewBox="671.14 562.15 452.93 469.61">
  <path d="m 62.695,460.2 -14.737,-14.77 3.271,-3.09 c 9.747,-9.22 28.802,-20.06 44.382,-25.24 18.679,-6.21 21.399,-6.5 62.389,-6.62 35.2,-0.11 37.99,-0.25 45.5,-2.29 11.23,-3.05 21.43,-8.48 29.01,-15.42 7.7,-7.06 8.17,-8.77 2.37,-8.77 -5.98,0 -27.91,-4.62 -38.38,-8.08 -12.14,-4.02 -33.5,-14.51 -33.5,-16.46 0,-0.83 3.15,-14.09 7,-29.46 3.85,-15.37 6.99,-28.3 6.97,-28.72 -0.01,-0.43 -3.21,-2.8 -7.11,-5.28 -30.93,-19.63 -42.46,-61.82 -26.4,-96.62 9.66,-20.92 23.9,-34.9 64.14,-62.96 19.59,-13.66 36.66,-26.79 41.23,-31.71 l 2.33,-2.51 -4.11,-0.69 c -5.8,-0.98 -12.96,-6.154 -16.52,-11.932 -2.68,-4.354 -3.03,-5.804 -3.03,-12.578 0,-6.774 0.35,-8.224 3.03,-12.578 10.05,-16.328 32.89,-16.328 42.94,0 2.68,4.354 3.03,5.804 3.03,12.578 0,6.774 -0.35,8.224 -3.03,12.578 -3.56,5.778 -10.72,10.952 -16.52,11.932 l -4.11,0.69 2.33,2.51 c 4.57,4.92 21.64,18.05 41.23,31.71 40.24,28.06 54.48,42.04 64.14,62.96 16.06,34.8 4.53,76.99 -26.4,96.62 -3.9,2.48 -7.1,4.85 -7.11,5.28 -0.02,0.42 3.12,13.35 6.97,28.72 3.85,15.37 7,28.63 7,29.46 0,1.95 -21.36,12.44 -33.5,16.46 -10.47,3.46 -32.4,8.08 -38.38,8.08 -5.8,0 -5.33,1.71 2.37,8.77 7.58,6.94 17.78,12.37 29.01,15.42 7.51,2.04 10.3,2.18 45.5,2.29 31.98,0.09 38.68,0.37 45.5,1.89 19.49,4.33 39.19,13.05 53.38,23.63 12.97,9.68 13.32,7.33 -3.68,24.3 l -14.73,14.71 -5.94,-4.44 C 405.41,459.25 386.15,451.35 367,448.59 c -5.78,-0.83 -21.97,-1.97 -36,-2.53 -14.02,-0.56 -29.52,-1.72 -34.43,-2.58 -12.87,-2.24 -26.59,-7.08 -35.84,-12.64 -4.43,-2.66 -8.36,-4.84 -8.73,-4.84 -0.37,0 -4.3,2.18 -8.73,4.84 -9.25,5.56 -22.97,10.4 -35.84,12.64 -4.91,0.86 -20.4,2.02 -34.43,2.58 -36.43,1.45 -51.08,4.01 -68.75,11.99 -5.298,2.39 -17.312,9.86 -24.784,15.4 -1.933,1.43 -2.767,0.77 -16.771,-13.25 z" fill="#000000" transform="translate(644.53,535.4)" />
  <path d="M 260,226.5 V 214 h 12 12 V 206.5 199 H 272 260 V 186.5 174 H 252.5 245 V 186.5 199 H 232.5 220 v 7.5 7.5 h 12.5 12.5 v 12.5 12.5 h 7.5 7.5 z" fill="#ffffff" transform="translate(644.53,535.4)" />
  <path d="m 205.27,302.48 c 4.82,-1.98 13.15,-4.77 18.5,-6.2 8.81,-2.35 11.48,-2.6 28.23,-2.6 16.75,0 19.42,0.25 28.23,2.6 7.76,2.07 21.01,6.89 28.28,10.28 0.86,0.4 7.49,-10.15 7.49,-11.92 0,-1.03 -9.08,-5.26 -18.12,-8.45 -16.43,-5.8 -27.56,-7.65 -45.88,-7.65 -18.32,0 -29.45,1.85 -45.88,7.65 -9.04,3.19 -18.12,7.42 -18.12,8.45 0,1.77 6.63,12.32 7.49,11.92 0.56,-0.26 4.96,-2.1 9.78,-4.08 z" fill="#ffffff" transform="translate(644.53,535.4)" />
  <path d="m 185.32,363.13 c 17.65,-12.11 44.18,-20.12 66.68,-20.12 22.5,0 49.03,8.01 66.68,20.12 2.3,1.58 4.38,2.87 4.63,2.87 0.51,0 8.69,-10.68 8.69,-11.34 0,-1.08 -13.52,-9.04 -23,-13.55 -23.92,-11.38 -50.02,-15.37 -75.68,-11.56 -14.21,2.11 -25.83,5.61 -38.32,11.56 -9.48,4.51 -23,12.47 -23,13.55 0,0.66 8.18,11.34 8.69,11.34 0.25,0 2.33,-1.29 4.63,-2.87 z" fill="#ffffff" transform="translate(644.53,535.4)" />
</svg>
