<svg xmlns="http://www.w3.org/2000/svg" viewBox="537.40 230.97 346.97 443.00">
  <path d="m 559.76,645.59 c -2.22,-13.35 -1.75,-39.94 0.95,-53.48 8.23,-41.36 32.37,-77.37 66.68,-99.5 10.97,-7.08 21.38,-12.03 36.5,-17.38 0.93,-0.33 -1.53,-2.1 -6.5,-4.68 -11.96,-6.21 -22.72,-17.3 -28.86,-29.73 -6.01,-12.17 -8,-21.41 -7.32,-33.98 0.97,-18.05 7.66,-32.94 20.68,-46.02 11.64,-11.7 30.03,-19.98 44.36,-19.98 h 5.03 l -5.44,-2.7 c -7.1,-3.51 -15.86,-12.34 -19.34,-19.46 -7.98,-16.38 -4.91,-35.67 7.68,-48.26 19.31,-19.31 54.11,-19.31 73.42,0 12.59,12.59 15.66,31.88 7.68,48.26 -3.47,7.12 -12.24,15.95 -19.33,19.46 l -5.45,2.7 h 5.04 c 14.33,0 32.71,8.28 44.35,19.98 13.02,13.08 19.71,27.97 20.69,46.02 0.68,12.57 -1.31,21.81 -7.32,33.98 -6.14,12.43 -16.91,23.52 -28.87,29.73 -4.97,2.58 -7.43,4.35 -6.5,4.68 15.13,5.35 25.53,10.3 36.5,17.38 34.32,22.13 58.45,58.14 66.68,99.5 2.7,13.54 3.17,40.13 0.95,53.48 l -1.37,8.25 H 710.89 561.14 Z" fill="#000000" />
</svg>
