<svg xmlns="http://www.w3.org/2000/svg" viewBox="594.81 269.75 361.80 415.80">
  <path d="M 90,422.5 V 404 h 12.5 12.5 v -21.35 -21.36 l 21,-22.36 21,-22.36 V 242.01 167.45 L 132.56,148.98 108.11,130.5 108.06,96.75 108,63 h 28.5 28.5 v 15 15 h 26 26 V 78 63 h 35 35 v 15 15 h 26 26 V 78 63 H 367.5 396 L 395.95,96.75 395.9,130.5 371.45,149 347,167.5 v 74.7 74.69 l 20.97,22.31 20.97,22.3 0.03,21.25 L 389,404 H 401.5 414 V 422.5 441 H 252 90 Z" fill="#000000" transform="translate(523.71,225.65)" />
  <path d="m 387.55,134.55 c 1.35,-1.35 2.45,-3.62 2.45,-5.05 0,-1.42 -1.1,-3.7 -2.45,-5.05 L 385.09,122 H 252 118.91 l -2.46,2.45 c -1.35,1.35 -2.45,3.63 -2.45,5.05 0,1.42 1.1,3.7 2.45,5.05 l 2.46,2.45 H 252 385.09 Z" fill="#ffffff" transform="translate(523.71,225.65)" />
  <path d="m 337.55,172.55 c 1.35,-1.35 2.45,-3.62 2.45,-5.05 0,-1.42 -1.1,-3.7 -2.45,-5.05 L 335.09,160 H 252 168.91 l -2.46,2.45 c -1.35,1.35 -2.45,3.63 -2.45,5.05 0,1.42 1.1,3.7 2.45,5.05 l 2.46,2.45 H 252 335.09 Z" fill="#ffffff" transform="translate(523.71,225.65)" />
  <path d="m 337.55,321.55 c 1.35,-1.35 2.45,-3.62 2.45,-5.05 0,-1.42 -1.1,-3.7 -2.45,-5.05 L 335.09,309 H 252 168.91 l -2.46,2.45 c -1.35,1.35 -2.45,3.63 -2.45,5.05 0,1.43 1.1,3.7 2.45,5.05 l 2.46,2.45 H 252 335.09 Z" fill="#ffffff" transform="translate(523.71,225.65)" />
  <path d="m 379.09,367.72 c 4.34,-3.34 4.6,-8.07 0.64,-11.75 C 377.66,354.03 375.52,354 252,354 c -123.52,0 -125.66,0.03 -127.73,1.97 -3.96,3.68 -3.7,8.41 0.64,11.75 2.31,1.77 251.87,1.77 254.18,0 z" fill="#ffffff" transform="translate(523.71,225.65)" />
  <path d="m 379.09,409.72 c 4.34,-3.34 4.6,-8.07 0.64,-11.75 C 377.66,396.03 375.52,396 252,396 c -123.52,0 -125.66,0.03 -127.73,1.97 -3.96,3.68 -3.7,8.41 0.64,11.75 2.31,1.77 251.87,1.77 254.18,0 z" fill="#ffffff" transform="translate(523.71,225.65)" />
</svg>
