<svg xmlns="http://www.w3.org/2000/svg" viewBox="299.53 442.12 544.78 512.60">
  <path d="M 186,482.9 C 156.82,481.37 128.97,474.4 107.65,463.3 97.239,457.87 94,454.91 94,450.82 c 0,-1.39 4.271,-12.32 9.49,-24.31 l 9.49,-21.79 -8.92,-20.48 -8.923,-20.49 -18.239,-22.33 C 66.867,329.14 58.201,318.5 57.641,317.77 57.081,317.04 51.866,278.42 46.053,231.96 L 35.484,147.48 28.871,145.26 C 20.791,142.54 15.722,138.8 11.855,132.72 5.0285,121.97 4.3748,110.37 9.9568,99.033 15.673,87.422 26.1398,81.214 39.9998,81.214 c 13.86,0 24.327,6.208 30.043,17.819 6.625,13.457 4.668,25.647 -6.433,40.077 -0.577,0.75 9.249,21.99 27.992,60.52 l 28.878,59.37 4.2,-72.95 c 2.3,-40.12 4.22,-74.41 4.25,-76.18 0.06,-2.75 -0.49,-3.52 -3.68,-5.17 -6.73,-3.47 -12.03,-8.905 -15.46,-15.875 -8.4,-17.07 -1.02,-36.417 17.21,-45.097 11.28,-5.371 25.13,-2.933 35.71,6.286 2.49,2.172 5.55,6.39 7.5,10.353 2.84,5.77 3.29,7.721 3.29,14.229 0,6.508 -0.45,8.459 -3.29,14.229 -1.94,3.93 -4.96,8.112 -7.33,10.143 l -4.04,3.452 24.83,72.07 c 13.66,39.64 25.08,72.08 25.37,72.09 0.3,0.01 6.86,-36.32 14.57,-80.72 l 14.02,-80.737 -4.29,-2.843 c -9.57,-6.336 -14.82,-16.151 -14.83,-27.705 -0.02,-13.445 7.41,-24.618 20.49,-30.847 7.79,-3.707 18.21,-3.707 26,0 8.15,3.881 13.45,9.005 17.21,16.639 2.84,5.772 3.29,7.717 3.28,14.208 -0.01,11.554 -5.26,21.369 -14.83,27.705 l -4.29,2.843 14.02,80.737 c 7.71,44.4 14.27,80.73 14.57,80.72 0.29,-0.01 11.71,-32.45 25.37,-72.09 l 24.83,-72.07 -4.04,-3.452 c -2.37,-2.031 -5.39,-6.213 -7.33,-10.143 -8.4,-17.07 -1.02,-36.417 17.21,-45.097 7.79,-3.707 18.21,-3.707 26,0 8.15,3.881 13.45,9.005 17.21,16.639 2.84,5.77 3.29,7.721 3.29,14.229 0,6.508 -0.45,8.459 -3.29,14.229 -3.43,6.97 -8.73,12.405 -15.46,15.875 -3.19,1.65 -3.74,2.42 -3.68,5.17 0.03,1.77 1.95,36.06 4.25,76.18 l 4.2,72.95 28.88,-59.37 c 18.74,-38.53 28.57,-59.77 27.99,-60.52 -11.1,-14.43 -13.06,-26.62 -6.43,-40.077 5.71,-11.611 16.18,-17.819 30.04,-17.819 13.86,0 24.33,6.208 30.04,17.819 5.59,11.337 4.93,22.937 -1.89,33.687 -3.87,6.08 -8.94,9.82 -17.02,12.54 l -6.61,2.22 -10.57,84.48 c -5.82,46.46 -11.03,85.08 -11.59,85.81 -0.56,0.73 -9.23,11.37 -19.26,23.65 l -18.24,22.33 -8.92,20.49 -8.92,20.48 9.49,21.79 c 5.22,11.99 9.49,22.92 9.49,24.31 0,4.09 -3.24,7.05 -13.65,12.48 -16.52,8.6 -36.61,14.69 -59.29,17.97 -8.52,1.23 -23.61,1.57 -78.06,1.72 -37.12,0.11 -69.97,0.07 -73,-0.09 z" fill="#000000" transform="translate(319.92,446.86)" />
  <path d="M 260.08,68.322 C 265.26,64.83 268,60.084 268,54.596 268,42.39 253.73,34.257 243.92,40.87 238.74,44.363 236,49.109 236,54.596 c 0,12.207 14.27,20.339 24.08,13.726 z" fill="#ffffff" transform="translate(319.92,446.86)" />
  <path d="M 372.08,88.322 C 377.26,84.83 380,80.084 380,74.596 380,69.109 377.26,64.363 372.08,60.87 362.27,54.257 348,62.39 348,74.596 c 0,12.207 14.27,20.339 24.08,13.726 z" fill="#ffffff" transform="translate(319.92,446.86)" />
  <path d="m 148.08,88.322 c 10.64,-7.17 10.64,-20.282 0,-27.452 -9.81,-6.613 -24.08,1.52 -24.08,13.726 0,12.207 14.27,20.339 24.08,13.726 z" fill="#ffffff" transform="translate(319.92,446.86)" />
  <path d="m 471.98,127.84 c 5.18,-2.6 8.02,-7.47 8.02,-13.74 0,-9.23 -6.47,-15.501 -16,-15.501 -9.53,0 -16,6.271 -16,15.501 0,9.22 6.47,15.49 16,15.49 2.48,0 6.07,-0.78 7.98,-1.75 z" fill="#ffffff" transform="translate(319.92,446.86)" />
  <path d="m 47.98,127.84 c 10.821,-5.43 10.821,-22.06 0,-27.49 -4.452,-2.239 -11.508,-2.239 -15.96,0 -10.821,5.43 -10.821,22.06 0,27.49 1.914,0.97 5.505,1.75 7.98,1.75 2.475,0 6.066,-0.78 7.98,-1.75 z" fill="#ffffff" transform="translate(319.92,446.86)" />
  <path d="m 230.92,268.01 c 3.62,-1.98 8.61,-5.28 11.08,-7.34 8.97,-7.47 11.33,-7.56 19.13,-0.74 4.45,3.9 18.6,12.34 19.3,11.52 C 280.9,270.9 252.57,108.6 252,108.6 c -0.28,0 -6.75,36.11 -14.4,80.25 -7.64,44.14 -14.1,80.81 -14.35,81.5 -0.71,1.92 0.55,1.54 7.67,-2.34 z" fill="#ffffff" transform="translate(319.92,446.86)" />
  <path d="m 366.53,274.85 c -0.33,-3.72 -2.38,-38.93 -4.56,-78.25 -2.18,-39.33 -4.08,-72.69 -4.22,-74.15 -0.14,-1.53 -11.34,29.55 -26.65,74 -14.52,42.16 -26.64,77.28 -26.92,78.06 -0.86,2.34 12.98,0.49 22.79,-3.05 12.51,-4.51 14.34,-4.63 18.78,-1.22 3.72,2.84 19.01,11.27 20.56,11.33 0.45,0.01 0.54,-3.01 0.22,-6.72 z" fill="#ffffff" transform="translate(319.92,446.86)" />
  <path d="m 145.27,277.98 c 3.98,-2 9.38,-5.19 12.01,-7.11 5.61,-4.09 6.87,-4.05 19.75,0.59 9.81,3.54 23.65,5.39 22.79,3.05 -0.28,-0.78 -12.4,-35.9 -26.92,-78.06 -15.31,-44.45 -26.51,-75.53 -26.65,-74 -0.14,1.46 -2.04,34.82 -4.22,74.15 -2.18,39.32 -4.23,74.53 -4.56,78.25 -0.32,3.71 -0.33,6.75 -0.01,6.75 0.33,0 3.84,-1.63 7.81,-3.62 z" fill="#ffffff" transform="translate(319.92,446.86)" />
  <path d="m 439.94,232.1 c 4.4,-35.15 7.87,-64.03 7.71,-64.19 -0.26,-0.25 -55.92,113.73 -57.44,117.6 -0.46,1.19 1.08,1.28 9.87,0.59 17.73,-1.38 16.73,-1.57 24.47,4.71 3.82,3.1 7.04,5.53 7.16,5.41 0.13,-0.13 3.83,-28.98 8.23,-64.12 z" fill="#ffffff" transform="translate(319.92,446.86)" />
  <path d="m 86.55,285.77 c 1.986,-1.04 3.986,-1.09 9.427,-0.25 9.703,1.51 18.373,1.42 17.743,-0.17 -1.48,-3.8 -57.121,-117.69 -57.365,-117.44 -0.161,0.16 3.287,28.84 7.664,63.74 4.376,34.89 7.962,63.81 7.969,64.26 0.007,0.45 2.719,-1.35 6.027,-4 3.308,-2.65 7.149,-5.41 8.535,-6.14 z" fill="#ffffff" transform="translate(319.92,446.86)" />
  <path d="m 113.07,346.04 c 90.16,-31.01 187.7,-31 277.87,0.01 4.1,1.41 7.77,2.22 8.16,1.8 2.43,-2.57 26.85,-32.85 26.83,-33.25 -0.02,-0.28 -3.23,-3.01 -7.14,-6.08 l -7.11,-5.57 -5.59,0.92 c -17.34,2.85 -42.85,-2.75 -61.38,-13.48 l -6.79,-3.93 -7.71,2.53 c -25.17,8.26 -50.44,4.76 -72.96,-10.12 l -5.25,-3.47 -5.25,3.47 c -12.75,8.42 -27.44,13.43 -42.3,14.41 -10.35,0.68 -19.36,-0.58 -30.66,-4.29 l -7.71,-2.53 -6.79,3.93 c -18.53,10.73 -44.04,16.33 -61.381,13.48 l -5.591,-0.92 -7.107,5.57 c -3.908,3.07 -7.018,5.89 -6.909,6.28 0.171,0.61 26.908,33.8 27.228,33.8 0.07,0 3.46,-1.15 7.54,-2.56 z" fill="#ffffff" transform="translate(319.92,446.86)" />
  <path d="m 151.2,384.76 c 66.18,-21.42 135.42,-21.42 201.6,0 8.42,2.72 17.27,5.79 19.67,6.82 3.17,1.36 4.51,1.55 4.87,0.7 0.27,-0.65 3.18,-7.31 6.45,-14.81 l 5.95,-13.62 -3.62,-1.16 C 319.15,341.27 260.34,335.74 194.5,344.67 c -24.83,3.36 -47.34,8.66 -76.62,18.02 l -3.62,1.16 5.95,13.62 c 3.27,7.5 6.18,14.16 6.45,14.81 0.36,0.85 1.7,0.66 4.87,-0.7 2.4,-1.03 11.25,-4.1 19.67,-6.82 z" fill="#ffffff" transform="translate(319.92,446.86)" />
  <path d="m 151.5,426.08 c 19.55,-4.83 40.86,-8.57 60.5,-10.64 16.29,-1.71 63.71,-1.71 80,0 27.32,2.87 65.82,10.76 85.75,17.56 3.99,1.36 7.25,2.3 7.25,2.07 0,-0.22 -2.19,-5.48 -4.87,-11.69 -5.79,-13.43 -4.87,-12.78 -30.35,-21.23 -17.35,-5.76 -37.27,-10.24 -58.78,-13.23 -17.53,-2.43 -60.47,-2.43 -78,0 -21.51,2.99 -41.43,7.47 -58.78,13.23 -25.48,8.45 -24.56,7.8 -30.35,21.23 -2.68,6.21 -4.87,11.47 -4.87,11.69 0,0.23 3.26,-0.71 7.25,-2.07 3.99,-1.36 15.35,-4.47 25.25,-6.92 z" fill="#ffffff" transform="translate(319.92,446.86)" />
  <path d="m 337,463.28 c 13.86,-2.01 22.5,-4.02 33.87,-7.9 l 9.36,-3.19 -6.86,-2.33 c -11.2,-3.79 -37.79,-10.04 -53.87,-12.66 -24.9,-4.06 -38.43,-5.08 -67.5,-5.08 -29.07,0 -42.6,1.02 -67.5,5.08 -16.08,2.62 -42.67,8.87 -53.87,12.66 l -6.86,2.33 9.36,3.21 c 15.15,5.19 33.46,8.48 52.87,9.5 3.02,0.16 35.88,0.2 73,0.09 54.33,-0.15 69.55,-0.49 78,-1.71 z" fill="#ffffff" transform="translate(319.92,446.86)" />
</svg>
